# xmcd CD database file
#
# Track frame offsets:
#	150
#	27243
#	46609
#	73885
#	95590
#	117004
#	138443
#	162825
#	186025
#	202560
#	223162
#	246902
#	266457
#
# Disc length: 3922 seconds
#
# Revision: 0
# Processed by: cddbd v1.5.2PL0 Copyright (c) Steve Scherf et al.
# Submitted via: CDex 1.51
#
DISCID=b10f500d
DTITLE=Blåbærrene - Blåbærjazz i Pavillonen
DYEAR=2002
DGENRE=Jazz
TTITLE0=On a little bamboo bridge
TTITLE1=Exactly like you
TTITLE2=By and by
TTITLE3=Glemmer du
TTITLE4=Indian summer
TTITLE5=Roll Jordan Roll
TTITLE6=Manden på risten
TTITLE7=Shoe shine boy
TTITLE8=Hun misted den i nat på D'angleterre
TTITLE9=Sister Kate
TTITLE10=When Irish eyes are smiling
TTITLE11=De 24 røvere
TTITLE12=Indiana
EXTD=YEAR: 2002
EXTT0=
EXTT1=
EXTT2=
EXTT3=
EXTT4=
EXTT5=
EXTT6=
EXTT7=
EXTT8=
EXTT9=
EXTT10=
EXTT11=
EXTT12=
PLAYORDER=
